<?xml version="1.0" encoding="utf-8"?>
<!-- Generator: Adobe Illustrator 25.0.1, SVG Export Plug-In . SVG Version: 6.00 Build 0)  -->
<svg version="1.1" id="katman_1" xmlns="http://www.w3.org/2000/svg" xmlns:xlink="http://www.w3.org/1999/xlink" x="0px" y="0px"
	 viewBox="0 0 560 400" style="enable-background:new 0 0 560 400;" xml:space="preserve">
<style type="text/css">
	.st0{fill:#253858;}
	.st1{fill:#2684FF;}
	.st2{fill:url(#SVGID_1_);}
	.st3{fill:url(#SVGID_2_);}
</style>
<g transform="matrix(.856661 0 0 .856661 29.9927 167.55)">
	<g>
		<path class="st0" d="M109.3,9h7.9v40.2c0,10.6-4.7,18-15.6,18c-3.2,0-6.4-0.5-9.5-1.5V58c2.6,1,5.4,1.5,8.2,1.5c6.7,0,9-4,9-9.8
			L109.3,9z"/>
		<path class="st0" d="M131.6,5.9c0.1,0,0.2,0,0.4,0c2.7,0,4.9,2.2,4.9,4.9c0,0.1,0,0.2,0,0.4c0,2.9-2.4,5.3-5.3,5.3
			s-5.3-2.4-5.3-5.3c0-0.1,0-0.2,0-0.4c0-2.7,2.2-4.9,4.9-4.9C131.4,5.9,131.5,5.9,131.6,5.9z M127.8,22.8h7.6v44h-7.6V22.8z"/>
		<path class="st0" d="M146.8,22.8h7.4v7.7c2.6-5.2,7-8.9,15.6-8.4v7.4c-9.7-1-15.6,1.9-15.6,11.3v26h-7.4V22.8z"/>
		<path class="st0" d="M205.2,58.9c-2.8,5.8-8.1,8.8-14.9,8.8c-11.7,0-17.6-9.9-17.6-22.9c0-12.4,6.2-22.9,18.5-22.9
			c6.4,0,11.4,2.9,14,8.6v-7.7h7.6v44h-7.6L205.2,58.9z M192.3,60.6c6.8,0,12.9-4.3,12.9-14.1V43c0-9.8-5.5-14.1-12-14.1
			c-8.5,0-12.9,5.6-12.9,15.8C180.3,55.4,184.5,60.6,192.3,60.6L192.3,60.6z"/>
		<path class="st0" d="M257.5,67.7c-11.2,0-16.4-2.2-20.9-4.5v-8.1c5.4,2.8,13.6,4.8,21.3,4.8c8.7,0,12-3.4,12-8.5
			s-3.2-7.8-14.2-10.5c-13-3.2-18.8-7.7-18.8-17.2c0-9,6.9-15.7,20.3-15.7c8.4,0,13.7,2,17.7,4.2v7.9c-5.5-3-11.7-4.6-18-4.4
			c-7.6,0-12.1,2.6-12.1,7.9c0,4.8,3.7,7.1,13.9,9.7c12.2,3.1,19.1,7,19.1,17.4C277.9,60.9,271.9,67.7,257.5,67.7z"/>
		<path class="st0" d="M284.6,44.7c0-13.2,7.7-22.8,20.9-22.8s20.8,9.6,20.8,22.8s-7.7,23-20.8,23S284.6,57.9,284.6,44.7z M292,44.7
			c0,8.4,4.1,15.9,13.5,15.9s13.4-7.6,13.4-15.9s-4-15.7-13.4-15.7S292,36.3,292,44.7L292,44.7z"/>
		<path class="st0" d="M345.5,22.8h11.4v7h-11.4v37h-7.4v-37H331v-7h7.1V18c0-8.2,4.6-13.7,14-13.7c1.7,0,3.4,0.2,5.1,0.7v7
			c-1.6-0.3-3.2-0.4-4.8-0.4c-4.7,0-7,2.7-7,6.7L345.5,22.8z"/>
		<path class="st0" d="M382.5,59.4c1.6,0,3.2-0.3,4.8-0.6v7.3c-1.7,0.5-3.4,0.7-5.1,0.7c-9.4,0-14-5.5-14-13.7V29.8H361v-7h7.1v-9.4
			h7.4v9.3h11.7v7h-11.7v23.1C375.6,56.8,377.9,59.4,382.5,59.4z"/>
		<path class="st0" d="M389.4,22.8h8.4l12.7,37.3l12.8-37.3h7.2l12.9,37.3L456,22.8h8.4l-16.2,44h-9.7l-7.6-21.3l-4-13.5l-4,13.5
			l-7.7,21.3h-9.7L389.4,22.8z"/>
		<path class="st0" d="M498.9,58.9c-2.8,5.8-8.1,8.8-14.9,8.8c-11.7,0-17.6-9.9-17.6-22.9c0-12.4,6.2-22.9,18.5-22.9
			c6.4,0,11.4,2.9,14,8.6v-7.7h7.6v44h-7.6L498.9,58.9z M486.1,60.6c6.8,0,12.9-4.3,12.9-14.1V43c0-9.8-5.5-14.1-12-14.1
			C478.4,29,474,34.6,474,44.8C474,55.4,478.2,60.6,486.1,60.6L486.1,60.6z"/>
		<path class="st0" d="M517.9,22.8h7.4v7.7c2.5-5.2,7-8.9,15.6-8.4v7.4c-9.7-1-15.6,1.9-15.6,11.3v26h-7.4V22.8z"/>
		<path class="st0" d="M567.6,67.7c-16.5,0-23.7-9.5-23.7-23c0-13.3,7.4-22.8,20.8-22.8c13.5,0,19,9.4,19,22.8v3.4h-32.1
			c1.1,7.5,5.9,12.3,16.3,12.3c4.6,0,9.1-0.8,13.4-2.4v7C577.6,67,572.1,67.7,567.6,67.7L567.6,67.7z M551.5,41.7H576
			c-0.4-8.2-4.1-12.9-11.7-12.9C556.3,28.8,552.3,34,551.5,41.7L551.5,41.7z"/>
	</g>
	<path class="st1" d="M72.4,35.8L39.8,3.2L36.6,0L12.1,24.5L0.9,35.8c-1.2,1.2-1.2,3.1,0,4.2l35.8,35.8l24.5-24.5l0.4-0.4L72.4,40
		C73.6,38.8,73.6,36.9,72.4,35.8z M36.6,49.1L25.4,37.9l11.2-11.2l11.2,11.2L36.6,49.1z"/>
	
		<linearGradient id="SVGID_1_" gradientUnits="userSpaceOnUse" x1="-842.4348" y1="713.7478" x2="-841.4348" y2="713.7478" gradientTransform="matrix(-13.3982 13.3982 13.3982 13.3982 -20815.377 1739.5155)">
		<stop  offset="0" style="stop-color:#0052CC"/>
		<stop  offset="0.18" style="stop-color:#0052CC"/>
		<stop  offset="1" style="stop-color:#2684FF"/>
	</linearGradient>
	<path class="st2" d="M36.6,26.7c-7.3-7.3-7.3-19.3-0.1-26.6L12,24.6l13.3,13.3L36.6,26.7z"/>
	
		<linearGradient id="SVGID_2_" gradientUnits="userSpaceOnUse" x1="-812.7836" y1="624.9692" x2="-811.7836" y2="624.9692" gradientTransform="matrix(13.3725 -13.3725 -13.3725 -13.3725 19265.0977 -2451.2642)">
		<stop  offset="0" style="stop-color:#0052CC"/>
		<stop  offset="0.18" style="stop-color:#0052CC"/>
		<stop  offset="1" style="stop-color:#2684FF"/>
	</linearGradient>
	<path class="st3" d="M47.9,37.8L36.6,49.1c3.5,3.5,5.5,8.3,5.5,13.3s-2,9.8-5.5,13.3l24.6-24.6L47.9,37.8z"/>
</g>
</svg>
