<?xml version="1.0" encoding="utf-8"?>
<!-- Generator: Adobe Illustrator 26.5.0, SVG Export Plug-In . SVG Version: 6.00 Build 0)  -->
<svg version="1.0" id="katman_1" xmlns="http://www.w3.org/2000/svg" xmlns:xlink="http://www.w3.org/1999/xlink" x="0px" y="0px"
	 viewBox="0 0 1190.55 841.89" style="enable-background:new 0 0 1190.55 841.89;" xml:space="preserve">
<style type="text/css">
	.st0{fill:#4F4E4E;}
	.st1{fill:#767677;}
	.st2{fill:#EE7628;}
	.st3{fill:#9E9E9E;}
	.st4{fill:#626363;}
</style>
<path class="st0" d="M347.64,434.79c0,19.68-1.56,26.07-5.62,30.8c-4.5,4.05-10.34,6.29-16.4,6.29l1.56,11.23
	c9.41,0.12,18.51-3.2,25.62-9.33c7.74-9.43,11.31-21.6,9.9-33.71v-74.4h-15.06V434.79z M459.95,425.94c0,8.4,0,15.94,0.68,22.46
	h-13.38l-0.88-13.36c-5.7,9.63-16.13,15.46-27.32,15.27c-13.03,0-28.55-7.07-28.55-35.95v-48h15.06v44.97
	c0,15.62,4.84,26.07,18.45,26.07c11.61,0.11,21.12-9.21,21.23-20.82c0-0.14,0-0.27,0-0.41v-50.36h15.06v59.68L459.95,425.94
	L459.95,425.94z M488.5,393.11c0-10.45,0-19-0.68-26.75h13.49l0.68,14.04c6.12-10.35,17.44-16.48,29.45-15.97
	c20,0,35.05,16.74,35.05,41.71c0,29.43-18.08,44.06-37.65,44.06c-10.18,0.44-19.84-4.46-25.5-12.93v44.95H488.5
	C488.5,482.22,488.5,393.11,488.5,393.11z M503.34,415.03c0.04,2.03,0.27,4.06,0.68,6.05c2.62,10.26,11.87,17.43,22.46,17.42
	c15.84,0,25.19-12.91,25.19-31.68c0-16.4-8.77-30.46-24.61-30.46c-12.97,1.05-23.14,11.59-23.71,24.59v14.06V415.03z M593.33,366.28
	l18.08,48.43c1.93,5.41,3.93,11.93,5.29,16.74c1.58-4.92,3.28-11.23,5.29-17.07l16.4-48.1h15.86l-22.48,58.43
	c-11.23,28.1-18.1,42.61-28.43,51.36c-5.21,4.76-11.57,8.09-18.45,9.67l-3.69-12.58c4.8-1.59,9.25-4.07,13.12-7.32
	c5.48-4.46,9.84-10.16,12.71-16.62c0.61-1.13,1.02-2.34,1.23-3.61c-0.12-1.36-0.45-2.68-0.98-3.93l-30.58-75.63h16.4L593.33,366.28
	L593.33,366.28z M694.21,342.71v23.59h21.58v11.25h-21.58v44.27c0,10.12,2.93,15.97,11.25,15.97c2.95,0.04,5.9-0.29,8.75-1.02
	l0.68,11.25c-4.29,1.49-8.82,2.18-13.36,2.03c-6.09,0.38-12.04-1.92-16.29-6.29c-4.58-6.12-6.68-13.75-5.86-21.36v-44.97h-12.81
	V366.2h13.03v-20L694.21,342.71L694.21,342.71z M743.54,409.97c-1.18,14.52,9.63,27.25,24.15,28.43c1.42,0.12,2.85,0.12,4.27,0
	c7.71,0.18,15.37-1.27,22.48-4.26l2.58,11.23c-8.73,3.6-18.11,5.32-27.54,5.06c-21.06,1.43-39.3-14.48-40.73-35.54
	c-0.13-1.94-0.12-3.88,0.05-5.82c0-24.72,14.74-44.27,38.78-44.27c26.97,0,33.71,23.59,33.71,38.65c0.14,2.32,0.14,4.65,0,6.97
	h-58.1L743.54,409.97L743.54,409.97z M787.6,398.74c1.68-11.62-6.38-22.39-18-24.07c-0.96-0.14-1.93-0.21-2.9-0.22
	c-12.81,0.92-22.8,11.45-23.06,24.29h43.94H787.6z M824.14,391.83c0-9.65,0-17.97-0.68-25.62h13.49v16.07h0.68
	c2.91-10.16,11.93-17.37,22.48-17.97c1.41-0.2,2.85-0.2,4.26,0v14.04c-1.72-0.2-3.46-0.2-5.16,0c-10.56,0.4-19.17,8.58-20.13,19.1
	c-0.41,2.32-0.64,4.63-0.68,6.97v43.72h-14.84v-56.18L824.14,391.83L824.14,391.83z"/>
<path class="st1" d="M817.54,140.55c1.29,21-14.68,39.08-35.69,40.37c-21,1.29-39.08-14.68-40.37-35.69
	c-1.29-21,14.68-39.08,35.69-40.37c0.23-0.01,0.46-0.03,0.69-0.04c20.76-1.15,38.52,14.75,39.67,35.52
	C817.54,140.41,817.54,140.48,817.54,140.55z"/>
<path class="st2" d="M595.32,580.67c-101.14,0-190.03-36.28-236-89.91c48.23,130.34,192.98,196.9,323.32,148.67
	c68.88-25.49,123.19-79.79,148.67-148.67C785.47,544.38,696.91,580.67,595.32,580.67L595.32,580.67z M595.32,232.1
	c101.14,0,190.05,36.28,236,89.91c-48.19-130.34-192.92-196.93-323.26-148.73c-68.92,25.48-123.25,79.82-148.73,148.73
	C405.29,268.27,493.73,232.1,595.32,232.1z"/>
<path class="st3" d="M456.08,684.99c1.66,26.46-18.44,49.25-44.9,50.91s-49.25-18.44-50.91-44.9c-1.66-26.46,18.44-49.25,44.9-50.91
	c0.3-0.02,0.6-0.03,0.9-0.05C432.29,638.65,454.68,658.77,456.08,684.99z"/>
<path class="st4" d="M370.82,219.88c-15.26,0.43-27.98-11.6-28.41-26.86s11.6-27.98,26.86-28.41c15.12-0.42,27.78,11.38,28.4,26.5
	C398.12,206.44,386.14,219.27,370.82,219.88z"/>
</svg>
