<?xml version="1.0" encoding="utf-8"?>
<!-- Generator: Adobe Illustrator 26.5.0, SVG Export Plug-In . SVG Version: 6.00 Build 0)  -->
<svg version="1.0" id="katman_1" xmlns="http://www.w3.org/2000/svg" xmlns:xlink="http://www.w3.org/1999/xlink" x="0px" y="0px"
	 viewBox="0 0 610 467" style="enable-background:new 0 0 610 467;" xml:space="preserve">
<style type="text/css">
	.st0{fill:#01EC64;}
	.st1{fill:#001E2B;}
</style>
<g>
	<path class="st0" d="M88.69,179.81c-5.2-6.17-9.68-12.44-10.59-13.74c-0.1-0.1-0.24-0.1-0.34,0c-0.91,1.3-5.39,7.57-10.59,13.74
		c-44.63,56.93,7.03,95.34,7.03,95.34l0.43,0.29c0.39,5.93,1.35,14.46,1.35,14.46h1.93h1.93c0,0,0.96-8.48,1.35-14.46l0.43-0.34
		C81.66,275.15,133.32,236.74,88.69,179.81z M77.9,274.28c0,0-2.31-1.98-2.94-2.99v-0.1l2.79-61.99c0-0.19,0.29-0.19,0.29,0
		l2.79,61.99v0.1C80.21,272.31,77.9,274.28,77.9,274.28z"/>
	<path class="st1" d="M174.59,261.64l-21.53-52.58l-0.05-0.15h-16.75v3.53h2.7c0.82,0,1.59,0.34,2.17,0.92
		c0.58,0.58,0.87,1.36,0.87,2.18l-0.48,52.92c0,1.65-1.35,3-2.99,3.05l-2.75,0.05v3.49h16.32v-3.49l-1.69-0.05
		c-1.64-0.05-2.99-1.4-2.99-3.05v-49.87l23.46,56.46c0.34,0.82,1.11,1.36,1.98,1.36c0.87,0,1.64-0.53,1.98-1.36l22.93-55.2
		l0.34,48.61c0,1.69-1.35,3.05-3.04,3.1h-1.74v3.49h19.12v-3.49h-2.61c-1.64,0-2.99-1.4-3.04-3.05l-0.14-52.92
		c0-1.69,1.35-3.05,2.99-3.1l2.8-0.05v-3.53h-16.32L174.59,261.64z M324.7,270.64c-0.53-0.53-0.82-1.26-0.82-2.13v-26
		c0-4.95-1.45-8.83-4.36-11.59c-2.86-2.76-6.82-4.17-11.76-4.17c-6.92,0-12.39,2.81-16.21,8.34c-0.05,0.1-0.19,0.15-0.34,0.15
		c-0.15,0-0.24-0.1-0.24-0.24l-1.79-6.94h-3l-7.69,4.41v2.43h1.98c0.92,0,1.69,0.24,2.23,0.73c0.53,0.49,0.82,1.21,0.82,2.23v30.6
		c0,0.87-0.29,1.6-0.82,2.13c-0.53,0.53-1.26,0.82-2.13,0.82h-1.94v3.54h17.71v-3.54h-1.94c-0.87,0-1.6-0.29-2.13-0.82
		c-0.53-0.53-0.82-1.26-0.82-2.13v-20.27c0-2.57,0.58-5.14,1.65-7.66c1.11-2.47,2.76-4.56,4.94-6.16c2.18-1.6,4.79-2.38,7.79-2.38
		c3.39,0,5.95,1.07,7.55,3.2c1.6,2.13,2.42,4.9,2.42,8.2v25.03c0,0.87-0.29,1.6-0.82,2.13c-0.53,0.53-1.26,0.82-2.13,0.82h-1.94
		v3.54h17.71v-3.54h-1.94C325.96,271.46,325.28,271.17,324.7,270.64z M486.54,212.87c-4.9-2.61-10.37-3.96-16.27-3.96h-23.04v3.52
		h2.26c0.86,0,1.63,0.34,2.4,1.11c0.72,0.72,1.1,1.55,1.1,2.41v51.95c0,0.87-0.38,1.69-1.1,2.41c-0.72,0.72-1.54,1.11-2.4,1.11
		h-2.26v3.52h23.04c5.9,0,11.38-1.35,16.27-3.96c4.9-2.61,8.88-6.47,11.76-11.39c2.88-4.92,4.37-10.86,4.37-17.62
		c0-6.76-1.49-12.65-4.37-17.62C495.37,219.34,491.43,215.52,486.54,212.87z M493.4,241.88c0,6.18-1.1,11.39-3.26,15.59
		c-2.16,4.2-5.04,7.34-8.59,9.37c-3.55,2.03-7.49,3.04-11.71,3.04h-4.66c-0.86,0-1.63-0.34-2.4-1.11c-0.72-0.72-1.1-1.54-1.1-2.41
		v-49.01c0-0.87,0.34-1.64,1.1-2.41c0.72-0.72,1.54-1.11,2.4-1.11h4.66c4.22,0,8.16,1.01,11.71,3.04c3.55,2.03,6.43,5.17,8.59,9.37
		C492.3,230.49,493.4,235.75,493.4,241.88z M557.13,245.41c-2.13-2.46-6.24-4.54-11.08-5.65c6.68-3.33,10.11-8.01,10.11-14.05
		c0-3.28-0.87-6.23-2.61-8.74c-1.74-2.51-4.21-4.54-7.35-5.94c-3.15-1.4-6.83-2.12-10.99-2.12h-26.08v3.52h2.08
		c0.87,0,1.64,0.34,2.42,1.11c0.73,0.72,1.11,1.55,1.11,2.41v51.95c0,0.87-0.39,1.69-1.11,2.41c-0.73,0.72-1.55,1.11-2.42,1.11
		h-2.27v3.52h28.31c4.31,0,8.32-0.72,11.95-2.17c3.63-1.45,6.53-3.57,8.62-6.37c2.13-2.8,3.19-6.23,3.19-10.19
		C560.95,251.97,559.69,248.35,557.13,245.41z M524.66,268.82c-0.73-0.72-1.11-1.54-1.11-2.41v-23.32H537
		c4.74,0,8.37,1.21,10.89,3.62c2.52,2.41,3.77,5.55,3.77,9.42c0,2.32-0.58,4.59-1.64,6.66c-1.11,2.12-2.76,3.81-4.99,5.12
		c-2.18,1.3-4.89,1.98-8.03,1.98h-9.92C526.21,269.89,525.43,269.55,524.66,268.82z M523.59,238.12v-20.71
		c0-0.87,0.34-1.64,1.11-2.41c0.73-0.72,1.55-1.11,2.42-1.11h6.39c4.59,0,7.98,1.16,10.11,3.38c2.13,2.27,3.19,5.17,3.19,8.74
		c0,3.67-1.02,6.61-3,8.84c-1.99,2.17-4.99,3.28-8.95,3.28H523.59z M257.27,229.83c-3.7-2.02-7.83-3.08-12.29-3.08
		c-4.35,0-8.42,0.96-12,2.92l-0.29,0.16c-3.7,2.02-6.63,4.96-8.79,8.66c-2.16,3.71-3.27,8.04-3.27,12.85c0,4.81,1.1,9.14,3.27,12.85
		c2.16,3.71,5.09,6.64,8.79,8.66c3.7,2.02,7.83,3.08,12.29,3.08c4.35,0,8.42-0.96,12-2.92l0.29-0.16c3.7-2.02,6.63-4.96,8.79-8.66
		c2.16-3.7,3.27-8.04,3.27-12.85c0-4.81-1.1-9.14-3.27-12.85C263.9,234.78,260.97,231.85,257.27,229.83z M260.82,251.33
		c0,5.92-1.44,10.73-4.32,14.19c-2.83,3.46-6.72,5.24-11.52,5.24c-4.72,0-8.55-1.72-11.37-5.06l-0.15-0.18
		c-2.88-3.46-4.32-8.28-4.32-14.19c0-5.81,1.39-10.55,4.17-14l0.16-0.19c2.83-3.46,6.72-5.24,11.52-5.24c4.8,0,8.69,1.78,11.52,5.24
		C259.38,240.6,260.82,245.41,260.82,251.33z M427.46,229.83c-3.7-2.02-7.83-3.08-12.29-3.08c-4.35,0-8.42,0.96-12,2.92l-0.29,0.16
		c-3.7,2.02-6.63,4.96-8.79,8.66c-2.16,3.71-3.27,8.04-3.27,12.85c0,4.81,1.1,9.14,3.27,12.85c2.16,3.71,5.09,6.64,8.79,8.66
		c3.7,2.02,7.83,3.08,12.29,3.08c4.35,0,8.42-0.96,12-2.92l0.29-0.16c3.7-2.02,6.63-4.96,8.79-8.66c2.16-3.7,3.27-8.04,3.27-12.85
		c0-4.81-1.1-9.14-3.27-12.85C434.08,234.78,431.1,231.85,427.46,229.83z M431.01,251.33c0,5.92-1.44,10.73-4.32,14.19
		c-2.83,3.46-6.72,5.24-11.52,5.24c-4.72,0-8.55-1.72-11.37-5.06l-0.15-0.18c-2.88-3.46-4.32-8.28-4.32-14.19
		c0-5.86,1.39-10.56,4.17-14l0.16-0.19c2.83-3.46,6.72-5.24,11.52-5.24c4.8,0,8.69,1.78,11.52,5.24
		C429.52,240.6,431.01,245.41,431.01,251.33z M358.82,226.75c-3.87,0-7.4,0.82-10.59,2.47s-5.71,3.87-7.5,6.72
		c-1.79,2.8-2.71,5.95-2.71,9.28c0,3,0.68,5.75,2.08,8.22c1.35,2.37,3.19,4.35,5.51,5.99l-6.92,9.38c-0.87,1.16-0.97,2.71-0.34,3.96
		c0.68,1.31,1.93,2.08,3.39,2.08h1.98c-1.85,1.25-3.35,2.72-4.41,4.46l-0.14,0.23c-1.26,2.08-1.89,4.25-1.89,6.48
		c0,4.08,1.77,7.47,5.27,10.01l0.19,0.14c3.58,2.56,8.61,3.87,14.94,3.87c4.4,0,8.61-0.73,12.43-2.13c3.76-1.36,6.83-3.36,9.13-5.96
		l0.2-0.23c2.37-2.71,3.58-5.99,3.58-9.76c0-3.96-1.45-6.77-4.84-9.47c-2.9-2.27-7.45-3.48-13.11-3.48h-19.34
		c-0.03,0-0.06-0.02-0.08-0.03l-0.02-0.02l0,0l-0.01-0.02c-0.01-0.03-0.03-0.09,0.01-0.12l5.03-6.77c1.35,0.63,2.61,1.01,3.72,1.26
		c1.16,0.24,2.47,0.34,3.92,0.34c4.06,0,7.74-0.82,10.93-2.47c3.19-1.64,5.76-3.87,7.59-6.72c1.84-2.8,2.76-5.95,2.76-9.28
		c0-3.58-1.74-10.1-6.48-13.44c0-0.03,0.02-0.04,0.03-0.05l0.02,0l0,0l10.4,1.16v-4.79h-16.64
		C364.34,227.23,361.63,226.75,358.82,226.75z M364.63,257.01c-1.84,0.97-3.82,1.5-5.8,1.5c-3.24,0-6.09-1.16-8.51-3.43
		c-2.42-2.27-3.63-5.61-3.63-9.86s1.21-7.59,3.63-9.86c2.42-2.27,5.27-3.43,8.51-3.43c1.95,0,3.8,0.44,5.57,1.37l0.23,0.12
		c1.84,0.97,3.34,2.47,4.55,4.45c1.16,1.98,1.79,4.45,1.79,7.35c0,2.95-0.58,5.41-1.79,7.35
		C368.01,254.54,366.46,256.04,364.63,257.01z M351.52,274.79h13.11c3.63,0,5.95,0.73,7.5,2.27c1.55,1.55,2.32,3.62,2.32,6.04
		c0,3.53-1.4,6.43-4.21,8.6c-2.81,2.18-6.58,3.29-11.22,3.29c-4.06,0-7.45-0.92-9.91-2.66c-2.47-1.74-3.72-4.4-3.72-7.78
		c0-2.13,0.58-4.11,1.74-5.85C348.28,276.97,349.68,275.71,351.52,274.79z"/>
</g>
</svg>
