<?xml version="1.0" encoding="utf-8"?>
<!-- Generator: Adobe Illustrator 24.3.0, SVG Export Plug-In . SVG Version: 6.00 Build 0)  -->
<svg version="1.0" id="katman_1" xmlns="http://www.w3.org/2000/svg" xmlns:xlink="http://www.w3.org/1999/xlink" x="0px" y="0px"
	 viewBox="0 0 500.45 500" style="enable-background:new 0 0 500.45 500;" xml:space="preserve">
<style type="text/css">
	.st0{fill:none;}
	.st1{fill:url(#SVGID_1_);}
	.st2{fill:url(#SVGID_2_);}
</style>
<rect x="0.45" class="st0" width="500" height="500"/>
<linearGradient id="SVGID_1_" gradientUnits="userSpaceOnUse" x1="38.4567" y1="318.4615" x2="310.1277" y2="80.5406" gradientTransform="matrix(1 0 0 -1 -47.6378 331.3094)">
	<stop  offset="0" style="stop-color:#5A9FD4"/>
	<stop  offset="1" style="stop-color:#306998"/>
</linearGradient>
<path class="st1" d="M247.03,2.37c-20.62,0.09-40.31,1.8-57.63,4.79c-51.04,8.77-60.3,27.14-60.3,61v44.72h120.6v14.91h-120.6H83.83
	c-35.05,0-65.74,20.5-75.34,59.5c-11.07,44.7-11.56,72.59,0,119.26c8.57,34.74,29.05,59.49,64.1,59.49h41.47v-53.61
	c0-38.73,34.44-72.9,75.34-72.9h120.46c33.53,0,60.3-26.87,60.3-59.63V68.15c0-31.8-27.57-55.69-60.3-61
	C289.14,3.8,267.64,2.28,247.03,2.37z M181.8,38.34c12.46,0,22.63,10.06,22.63,22.43c0,12.33-10.17,22.29-22.63,22.29
	c-12.5,0-22.63-9.97-22.63-22.29C159.17,48.4,169.3,38.34,181.8,38.34z"/>
<linearGradient id="SVGID_2_" gradientUnits="userSpaceOnUse" x1="416.3591" y1="-60.3698" x2="320.1721" y2="78.1542" gradientTransform="matrix(1 0 0 -1 -47.6378 331.3094)">
	<stop  offset="0" style="stop-color:#FFD43B"/>
	<stop  offset="1" style="stop-color:#FFE873"/>
</linearGradient>
<path class="st2" d="M385.19,127.79v52.11c0,40.4-35.2,74.4-75.34,74.4H189.39c-33,0-60.3,27.48-60.3,59.63v111.74
	c0,31.8,28.42,50.51,60.3,59.63c38.18,10.92,74.78,12.9,120.46,0c30.36-8.55,60.3-25.77,60.3-59.63v-44.72H249.69v-14.91h120.46
	h60.3c35.05,0,48.11-23.79,60.3-59.49c12.59-36.76,12.06-72.11,0-119.26c-8.66-33.95-25.21-59.49-60.3-59.49H385.19z M317.44,410.77
	c12.5,0,22.63,9.97,22.63,22.29c0,12.37-10.13,22.43-22.63,22.43c-12.46,0-22.63-10.06-22.63-22.43
	C294.81,420.73,304.98,410.77,317.44,410.77z"/>
</svg>
